<mxfile host="app.diagrams.net" modified="2023-12-25T04:13:57.754Z" agent="Mozilla/5.0 (Windows NT 10.0; Win64; x64; rv:120.0) Gecko/20100101 Firefox/120.0" etag="OpaEC7l__d1cOFXj-8sy" version="22.1.11" type="github">
  <diagram name="第 1 页" id="x2SoXymloEqKyPD_Y4rw">
    <mxGraphModel dx="782" dy="753" grid="1" gridSize="10" guides="1" tooltips="1" connect="1" arrows="1" fold="1" page="1" pageScale="1" pageWidth="827" pageHeight="1169" math="0" shadow="0">
      <root>
        <mxCell id="0" />
        <mxCell id="1" parent="0" />
        <mxCell id="RxqqW9vf8jTpbXpibjCa-1" value="" style="rounded=1;whiteSpace=wrap;html=1;labelBackgroundColor=none;labelBorderColor=none;fillColor=#99CCFF;strokeColor=none;shadow=1;" vertex="1" parent="1">
          <mxGeometry x="195" y="60" width="300" height="400" as="geometry" />
        </mxCell>
        <mxCell id="RxqqW9vf8jTpbXpibjCa-4" value="&lt;div align=&quot;right&quot;&gt;192.168.12.155/16&lt;/div&gt;" style="text;html=1;strokeColor=none;fillColor=none;align=center;verticalAlign=middle;whiteSpace=wrap;rounded=0;fontStyle=1" vertex="1" parent="1">
          <mxGeometry x="310" y="460" width="60" height="30" as="geometry" />
        </mxCell>
        <mxCell id="RxqqW9vf8jTpbXpibjCa-16" value="" style="rounded=1;whiteSpace=wrap;html=1;fillColor=#B9E0A5;strokeColor=none;" vertex="1" parent="1">
          <mxGeometry x="235" y="220" width="225" height="90" as="geometry" />
        </mxCell>
        <mxCell id="RxqqW9vf8jTpbXpibjCa-19" value="" style="rounded=0;whiteSpace=wrap;html=1;fillColor=#B9E0A5;strokeColor=none;fontColor=#ffffff;" vertex="1" parent="1">
          <mxGeometry x="235" y="290" width="225" height="170" as="geometry" />
        </mxCell>
        <mxCell id="RxqqW9vf8jTpbXpibjCa-24" value="&lt;div&gt;ens192&lt;/div&gt;" style="rounded=1;whiteSpace=wrap;html=1;fillColor=#D5E8D4;strokeColor=none;" vertex="1" parent="1">
          <mxGeometry x="295" y="440" width="90" height="20" as="geometry" />
        </mxCell>
        <mxCell id="RxqqW9vf8jTpbXpibjCa-25" value="定时脚本" style="rounded=1;whiteSpace=wrap;html=1;strokeColor=none;fillColor=#CDA2BE;fontStyle=1" vertex="1" parent="1">
          <mxGeometry x="290" y="385" width="100" height="30" as="geometry" />
        </mxCell>
        <mxCell id="RxqqW9vf8jTpbXpibjCa-30" value="" style="endArrow=classic;startArrow=classic;rounded=0;exitX=0.5;exitY=1;exitDx=0;exitDy=0;entryX=0.5;entryY=0;entryDx=0;entryDy=0;labelBackgroundColor=none;fontColor=none;noLabel=1;fillColor=#f0a30a;strokeColor=#CC6600;strokeWidth=1;" edge="1" parent="1" source="RxqqW9vf8jTpbXpibjCa-25" target="RxqqW9vf8jTpbXpibjCa-24">
          <mxGeometry width="50" height="50" relative="1" as="geometry">
            <mxPoint x="310" y="390" as="sourcePoint" />
            <mxPoint x="360" y="340" as="targetPoint" />
          </mxGeometry>
        </mxCell>
        <mxCell id="RxqqW9vf8jTpbXpibjCa-35" value="veth&amp;lt;id&amp;gt;、..." style="rounded=1;whiteSpace=wrap;html=1;fillColor=#D5E8D4;strokeColor=none;" vertex="1" parent="1">
          <mxGeometry x="367" y="220" width="76" height="20" as="geometry" />
        </mxCell>
        <mxCell id="RxqqW9vf8jTpbXpibjCa-38" value="veth&amp;lt;id&amp;gt;" style="rounded=1;whiteSpace=wrap;html=1;fillColor=#D5E8D4;strokeColor=none;" vertex="1" parent="1">
          <mxGeometry x="255" y="220" width="50" height="20" as="geometry" />
        </mxCell>
        <mxCell id="RxqqW9vf8jTpbXpibjCa-42" value="" style="endArrow=none;html=1;rounded=0;entryX=0.5;entryY=1;entryDx=0;entryDy=0;exitX=0.5;exitY=0;exitDx=0;exitDy=0;strokeColor=#CC6600;strokeWidth=2;" edge="1" parent="1" source="RxqqW9vf8jTpbXpibjCa-38" target="RxqqW9vf8jTpbXpibjCa-22">
          <mxGeometry width="50" height="50" relative="1" as="geometry">
            <mxPoint x="310" y="390" as="sourcePoint" />
            <mxPoint x="550" y="300" as="targetPoint" />
          </mxGeometry>
        </mxCell>
        <mxCell id="RxqqW9vf8jTpbXpibjCa-44" value="" style="endArrow=none;html=1;rounded=0;entryX=0.5;entryY=1;entryDx=0;entryDy=0;exitX=0.5;exitY=0;exitDx=0;exitDy=0;strokeColor=default;strokeWidth=2;dashed=1;dashPattern=1 4;" edge="1" parent="1" source="RxqqW9vf8jTpbXpibjCa-35" target="RxqqW9vf8jTpbXpibjCa-36">
          <mxGeometry width="50" height="50" relative="1" as="geometry">
            <mxPoint x="350" y="250" as="sourcePoint" />
            <mxPoint x="350" y="230" as="targetPoint" />
          </mxGeometry>
        </mxCell>
        <mxCell id="RxqqW9vf8jTpbXpibjCa-45" value="&lt;div&gt;...&lt;/div&gt;" style="edgeLabel;html=1;align=center;verticalAlign=middle;resizable=0;points=[];fontColor=#330000;labelBackgroundColor=#99CCFF;" vertex="1" connectable="0" parent="RxqqW9vf8jTpbXpibjCa-44">
          <mxGeometry x="-0.1252" y="1" relative="1" as="geometry">
            <mxPoint x="10" as="offset" />
          </mxGeometry>
        </mxCell>
        <mxCell id="RxqqW9vf8jTpbXpibjCa-46" value="" style="endArrow=classic;startArrow=classic;rounded=0;exitX=0.5;exitY=1;exitDx=0;exitDy=0;entryX=0.5;entryY=0;entryDx=0;entryDy=0;labelBackgroundColor=none;fontColor=none;noLabel=1;fillColor=#f0a30a;strokeColor=#CC6600;strokeWidth=1;" edge="1" parent="1" source="RxqqW9vf8jTpbXpibjCa-26" target="RxqqW9vf8jTpbXpibjCa-25">
          <mxGeometry width="50" height="50" relative="1" as="geometry">
            <mxPoint x="350" y="420" as="sourcePoint" />
            <mxPoint x="350" y="450" as="targetPoint" />
          </mxGeometry>
        </mxCell>
        <mxCell id="RxqqW9vf8jTpbXpibjCa-51" value="" style="group;fontStyle=1" vertex="1" connectable="0" parent="1">
          <mxGeometry x="230" y="130" width="100" height="60" as="geometry" />
        </mxCell>
        <mxCell id="RxqqW9vf8jTpbXpibjCa-22" value="&lt;div&gt;容器 Nginx&lt;/div&gt;&lt;div&gt;10.233.0.88&lt;/div&gt;&lt;div&gt;&lt;br&gt;&lt;/div&gt;" style="rounded=1;whiteSpace=wrap;html=1;fillColor=#F0A30A;fontColor=#000000;strokeColor=none;fillStyle=auto;glass=0;shadow=1;" vertex="1" parent="RxqqW9vf8jTpbXpibjCa-51">
          <mxGeometry width="100" height="60" as="geometry" />
        </mxCell>
        <mxCell id="RxqqW9vf8jTpbXpibjCa-37" value="veth&amp;lt;id&amp;gt;" style="rounded=1;whiteSpace=wrap;html=1;fillColor=#D5E8D4;strokeColor=none;" vertex="1" parent="RxqqW9vf8jTpbXpibjCa-51">
          <mxGeometry x="25" y="40" width="50" height="20" as="geometry" />
        </mxCell>
        <mxCell id="RxqqW9vf8jTpbXpibjCa-52" value="" style="group" vertex="1" connectable="0" parent="1">
          <mxGeometry x="355" y="130" width="100" height="60" as="geometry" />
        </mxCell>
        <mxCell id="RxqqW9vf8jTpbXpibjCa-36" value="&lt;div&gt;其他容器 ...&lt;/div&gt;&lt;div&gt;10.233.0.&amp;lt;...&amp;gt;&lt;br&gt;&lt;/div&gt;&lt;div&gt;&lt;br&gt;&lt;/div&gt;" style="rounded=1;whiteSpace=wrap;html=1;fillColor=#91C8FF;fontColor=#000000;strokeColor=none;fillStyle=auto;glass=0;shadow=1;gradientColor=none;movable=1;resizable=1;rotatable=1;deletable=1;editable=1;locked=0;connectable=1;" vertex="1" parent="RxqqW9vf8jTpbXpibjCa-52">
          <mxGeometry width="100" height="60" as="geometry" />
        </mxCell>
        <mxCell id="RxqqW9vf8jTpbXpibjCa-41" value="veth&amp;lt;id&amp;gt;、..." style="rounded=1;whiteSpace=wrap;html=1;fillColor=#D5E8D4;strokeColor=none;movable=0;resizable=0;rotatable=0;deletable=0;editable=0;locked=1;connectable=0;" vertex="1" parent="RxqqW9vf8jTpbXpibjCa-52">
          <mxGeometry x="14" y="40" width="76" height="20" as="geometry" />
        </mxCell>
        <mxCell id="RxqqW9vf8jTpbXpibjCa-56" value="" style="group" vertex="1" connectable="0" parent="1">
          <mxGeometry x="295" y="266" width="90" height="44" as="geometry" />
        </mxCell>
        <mxCell id="RxqqW9vf8jTpbXpibjCa-31" value="&lt;div&gt;br-&amp;lt;id&amp;gt;&lt;br&gt;&lt;/div&gt;&lt;div&gt;(harbor_harbor)&lt;/div&gt;" style="rounded=1;whiteSpace=wrap;html=1;fillColor=#D5E8D4;strokeColor=none;" vertex="1" parent="RxqqW9vf8jTpbXpibjCa-56">
          <mxGeometry y="14" width="90" height="30" as="geometry" />
        </mxCell>
        <mxCell id="RxqqW9vf8jTpbXpibjCa-32" value="&lt;div style=&quot;font-size: 11px;&quot;&gt;10.233.0.1/24&lt;/div&gt;" style="text;html=1;strokeColor=none;fillColor=none;align=center;verticalAlign=middle;whiteSpace=wrap;rounded=0;fontStyle=1;fontSize=11;" vertex="1" parent="RxqqW9vf8jTpbXpibjCa-56">
          <mxGeometry x="10" width="70" height="14" as="geometry" />
        </mxCell>
        <mxCell id="RxqqW9vf8jTpbXpibjCa-58" value="" style="endArrow=none;html=1;entryX=0.5;entryY=1;entryDx=0;entryDy=0;exitX=0;exitY=0.25;exitDx=0;exitDy=0;strokeColor=#CC6600;strokeWidth=2;rounded=0;edgeStyle=orthogonalEdgeStyle;" edge="1" parent="1" source="RxqqW9vf8jTpbXpibjCa-31" target="RxqqW9vf8jTpbXpibjCa-38">
          <mxGeometry width="50" height="50" relative="1" as="geometry">
            <mxPoint x="290" y="230" as="sourcePoint" />
            <mxPoint x="290" y="200" as="targetPoint" />
          </mxGeometry>
        </mxCell>
        <mxCell id="RxqqW9vf8jTpbXpibjCa-61" value="" style="endArrow=classic;html=1;rounded=0;exitX=0;exitY=0.5;exitDx=0;exitDy=0;entryX=0;entryY=0.5;entryDx=0;entryDy=0;labelPosition=center;verticalLabelPosition=top;align=center;verticalAlign=bottom;strokeColor=#CC6600;edgeStyle=orthogonalEdgeStyle;curved=1;strokeWidth=2;" edge="1" parent="1" source="RxqqW9vf8jTpbXpibjCa-26" target="RxqqW9vf8jTpbXpibjCa-31">
          <mxGeometry width="50" height="50" relative="1" as="geometry">
            <mxPoint x="310" y="547" as="sourcePoint" />
            <mxPoint x="360" y="497" as="targetPoint" />
            <Array as="points">
              <mxPoint x="260" y="350" />
              <mxPoint x="260" y="295" />
            </Array>
          </mxGeometry>
        </mxCell>
        <mxCell id="RxqqW9vf8jTpbXpibjCa-64" value="" style="endArrow=classic;html=1;rounded=0;exitX=1;exitY=0.5;exitDx=0;exitDy=0;labelPosition=center;verticalLabelPosition=top;align=center;verticalAlign=bottom;strokeColor=#CC6600;edgeStyle=orthogonalEdgeStyle;curved=1;strokeWidth=2;entryX=1;entryY=0.5;entryDx=0;entryDy=0;" edge="1" parent="1" source="RxqqW9vf8jTpbXpibjCa-26" target="RxqqW9vf8jTpbXpibjCa-31">
          <mxGeometry width="50" height="50" relative="1" as="geometry">
            <mxPoint x="305" y="500" as="sourcePoint" />
            <mxPoint x="390" y="300" as="targetPoint" />
            <Array as="points">
              <mxPoint x="420" y="350" />
              <mxPoint x="420" y="295" />
            </Array>
          </mxGeometry>
        </mxCell>
        <mxCell id="RxqqW9vf8jTpbXpibjCa-65" value="" style="group" vertex="1" connectable="0" parent="1">
          <mxGeometry x="295" y="330" width="90" height="30" as="geometry" />
        </mxCell>
        <mxCell id="RxqqW9vf8jTpbXpibjCa-26" value="&lt;div&gt;vxlan233&lt;/div&gt;" style="rounded=1;whiteSpace=wrap;html=1;fillColor=#D5E8D4;strokeColor=none;" vertex="1" parent="RxqqW9vf8jTpbXpibjCa-65">
          <mxGeometry y="10" width="90" height="20" as="geometry" />
        </mxCell>
        <mxCell id="RxqqW9vf8jTpbXpibjCa-28" value="&lt;div style=&quot;font-size: 11px;&quot;&gt;10.233.0.0/32&lt;/div&gt;" style="text;html=1;strokeColor=none;fillColor=none;align=center;verticalAlign=middle;whiteSpace=wrap;rounded=0;fontStyle=1;fontSize=11;" vertex="1" parent="RxqqW9vf8jTpbXpibjCa-65">
          <mxGeometry x="15" width="60" height="10" as="geometry" />
        </mxCell>
        <mxCell id="RxqqW9vf8jTpbXpibjCa-66" style="rounded=0;orthogonalLoop=1;jettySize=auto;html=1;exitX=1;exitY=0.25;exitDx=0;exitDy=0;entryX=0.5;entryY=1;entryDx=0;entryDy=0;dashed=1;dashPattern=1 4;strokeColor=default;endArrow=none;endFill=0;strokeWidth=2;edgeStyle=orthogonalEdgeStyle;" edge="1" parent="1" source="RxqqW9vf8jTpbXpibjCa-31" target="RxqqW9vf8jTpbXpibjCa-35">
          <mxGeometry relative="1" as="geometry" />
        </mxCell>
        <mxCell id="RxqqW9vf8jTpbXpibjCa-71" value="" style="group" vertex="1" connectable="0" parent="1">
          <mxGeometry x="275" y="80" width="153" height="30" as="geometry" />
        </mxCell>
        <mxCell id="RxqqW9vf8jTpbXpibjCa-2" value="&lt;div style=&quot;font-size: 14px;&quot;&gt;服务器（harbor）&lt;/div&gt;&lt;div style=&quot;font-size: 14px;&quot;&gt;&lt;br&gt;&lt;/div&gt;" style="text;html=1;align=center;verticalAlign=middle;whiteSpace=wrap;rounded=0;fontStyle=1;fontColor=#004C99;fontSize=14;" vertex="1" parent="RxqqW9vf8jTpbXpibjCa-71">
          <mxGeometry width="140" height="20" as="geometry" />
        </mxCell>
        <mxCell id="RxqqW9vf8jTpbXpibjCa-39" value="子网：10.233.0.0/24" style="text;whiteSpace=wrap;html=1;fontColor=#004C99;fontSize=11;" vertex="1" parent="RxqqW9vf8jTpbXpibjCa-71">
          <mxGeometry x="13" y="10" width="140" height="20" as="geometry" />
        </mxCell>
        <mxCell id="RxqqW9vf8jTpbXpibjCa-72" value="" style="rounded=1;whiteSpace=wrap;html=1;labelBackgroundColor=none;labelBorderColor=none;fillColor=#99CCFF;strokeColor=none;shadow=1;" vertex="1" parent="1">
          <mxGeometry x="570" y="60" width="300" height="400" as="geometry" />
        </mxCell>
        <mxCell id="RxqqW9vf8jTpbXpibjCa-73" value="&lt;div align=&quot;right&quot;&gt;192.168.12.155/16&lt;/div&gt;" style="text;html=1;strokeColor=none;fillColor=none;align=center;verticalAlign=middle;whiteSpace=wrap;rounded=0;fontStyle=1" vertex="1" parent="1">
          <mxGeometry x="685" y="460" width="60" height="30" as="geometry" />
        </mxCell>
        <mxCell id="RxqqW9vf8jTpbXpibjCa-74" value="" style="rounded=1;whiteSpace=wrap;html=1;fillColor=#B9E0A5;strokeColor=none;" vertex="1" parent="1">
          <mxGeometry x="610" y="220" width="225" height="90" as="geometry" />
        </mxCell>
        <mxCell id="RxqqW9vf8jTpbXpibjCa-75" value="" style="rounded=0;whiteSpace=wrap;html=1;fillColor=#B9E0A5;strokeColor=none;fontColor=#ffffff;" vertex="1" parent="1">
          <mxGeometry x="610" y="290" width="225" height="170" as="geometry" />
        </mxCell>
        <mxCell id="RxqqW9vf8jTpbXpibjCa-76" value="&lt;div&gt;ens192&lt;/div&gt;" style="rounded=1;whiteSpace=wrap;html=1;fillColor=#D5E8D4;strokeColor=none;" vertex="1" parent="1">
          <mxGeometry x="670" y="440" width="90" height="20" as="geometry" />
        </mxCell>
        <mxCell id="RxqqW9vf8jTpbXpibjCa-77" value="定时脚本" style="rounded=1;whiteSpace=wrap;html=1;strokeColor=none;fillColor=#CDA2BE;fontStyle=1" vertex="1" parent="1">
          <mxGeometry x="665" y="385" width="100" height="30" as="geometry" />
        </mxCell>
        <mxCell id="RxqqW9vf8jTpbXpibjCa-78" value="" style="endArrow=classic;startArrow=classic;rounded=0;exitX=0.5;exitY=1;exitDx=0;exitDy=0;entryX=0.5;entryY=0;entryDx=0;entryDy=0;labelBackgroundColor=none;fontColor=none;noLabel=1;fillColor=#f0a30a;strokeColor=#CC6600;strokeWidth=1;" edge="1" parent="1" source="RxqqW9vf8jTpbXpibjCa-77" target="RxqqW9vf8jTpbXpibjCa-76">
          <mxGeometry width="50" height="50" relative="1" as="geometry">
            <mxPoint x="685" y="390" as="sourcePoint" />
            <mxPoint x="735" y="340" as="targetPoint" />
          </mxGeometry>
        </mxCell>
        <mxCell id="RxqqW9vf8jTpbXpibjCa-84" value="" style="endArrow=classic;startArrow=classic;rounded=0;exitX=0.5;exitY=1;exitDx=0;exitDy=0;entryX=0.5;entryY=0;entryDx=0;entryDy=0;labelBackgroundColor=none;fontColor=none;noLabel=1;fillColor=#f0a30a;strokeColor=#CC6600;strokeWidth=1;" edge="1" parent="1" source="RxqqW9vf8jTpbXpibjCa-98" target="RxqqW9vf8jTpbXpibjCa-77">
          <mxGeometry width="50" height="50" relative="1" as="geometry">
            <mxPoint x="725" y="420" as="sourcePoint" />
            <mxPoint x="725" y="450" as="targetPoint" />
          </mxGeometry>
        </mxCell>
        <mxCell id="RxqqW9vf8jTpbXpibjCa-97" value="" style="group" vertex="1" connectable="0" parent="1">
          <mxGeometry x="670" y="330" width="90" height="30" as="geometry" />
        </mxCell>
        <mxCell id="RxqqW9vf8jTpbXpibjCa-98" value="&lt;div&gt;vxlan233&lt;/div&gt;" style="rounded=1;whiteSpace=wrap;html=1;fillColor=#D5E8D4;strokeColor=none;" vertex="1" parent="RxqqW9vf8jTpbXpibjCa-97">
          <mxGeometry y="10" width="90" height="20" as="geometry" />
        </mxCell>
        <mxCell id="RxqqW9vf8jTpbXpibjCa-99" value="&lt;div style=&quot;font-size: 11px;&quot;&gt;10.233.1.0/32&lt;/div&gt;" style="text;html=1;strokeColor=none;fillColor=none;align=center;verticalAlign=middle;whiteSpace=wrap;rounded=0;fontStyle=1;fontSize=11;" vertex="1" parent="RxqqW9vf8jTpbXpibjCa-97">
          <mxGeometry x="15" width="60" height="10" as="geometry" />
        </mxCell>
        <mxCell id="RxqqW9vf8jTpbXpibjCa-101" value="" style="group" vertex="1" connectable="0" parent="1">
          <mxGeometry x="650" y="80" width="153" height="30" as="geometry" />
        </mxCell>
        <mxCell id="RxqqW9vf8jTpbXpibjCa-102" value="&lt;div style=&quot;font-size: 14px;&quot;&gt;服务器1&lt;/div&gt;&lt;div style=&quot;font-size: 14px;&quot;&gt;&lt;br&gt;&lt;/div&gt;" style="text;html=1;align=center;verticalAlign=middle;whiteSpace=wrap;rounded=0;fontStyle=1;fontColor=#004C99;fontSize=14;" vertex="1" parent="RxqqW9vf8jTpbXpibjCa-101">
          <mxGeometry width="140" height="20" as="geometry" />
        </mxCell>
        <mxCell id="RxqqW9vf8jTpbXpibjCa-103" value="子网：10.233.1.0/24" style="text;whiteSpace=wrap;html=1;fontColor=#004C99;fontSize=11;" vertex="1" parent="RxqqW9vf8jTpbXpibjCa-101">
          <mxGeometry x="13" y="10" width="140" height="20" as="geometry" />
        </mxCell>
        <mxCell id="RxqqW9vf8jTpbXpibjCa-104" value="" style="rounded=1;whiteSpace=wrap;html=1;labelBackgroundColor=none;labelBorderColor=none;fillColor=#99CCFF;strokeColor=none;shadow=1;" vertex="1" parent="1">
          <mxGeometry x="930" y="60" width="300" height="400" as="geometry" />
        </mxCell>
        <mxCell id="RxqqW9vf8jTpbXpibjCa-105" value="&lt;div align=&quot;right&quot;&gt;192.168.12.155/16&lt;/div&gt;" style="text;html=1;strokeColor=none;fillColor=none;align=center;verticalAlign=middle;whiteSpace=wrap;rounded=0;fontStyle=1" vertex="1" parent="1">
          <mxGeometry x="1045" y="460" width="60" height="30" as="geometry" />
        </mxCell>
        <mxCell id="RxqqW9vf8jTpbXpibjCa-106" value="" style="rounded=1;whiteSpace=wrap;html=1;fillColor=#B9E0A5;strokeColor=none;" vertex="1" parent="1">
          <mxGeometry x="970" y="220" width="225" height="90" as="geometry" />
        </mxCell>
        <mxCell id="RxqqW9vf8jTpbXpibjCa-107" value="" style="rounded=0;whiteSpace=wrap;html=1;fillColor=#B9E0A5;strokeColor=none;fontColor=#ffffff;" vertex="1" parent="1">
          <mxGeometry x="970" y="290" width="225" height="170" as="geometry" />
        </mxCell>
        <mxCell id="RxqqW9vf8jTpbXpibjCa-108" value="&lt;div&gt;ens192&lt;/div&gt;" style="rounded=1;whiteSpace=wrap;html=1;fillColor=#D5E8D4;strokeColor=none;" vertex="1" parent="1">
          <mxGeometry x="1030" y="440" width="90" height="20" as="geometry" />
        </mxCell>
        <mxCell id="RxqqW9vf8jTpbXpibjCa-109" value="定时脚本" style="rounded=1;whiteSpace=wrap;html=1;strokeColor=none;fillColor=#CDA2BE;fontStyle=1" vertex="1" parent="1">
          <mxGeometry x="1025" y="385" width="100" height="30" as="geometry" />
        </mxCell>
        <mxCell id="RxqqW9vf8jTpbXpibjCa-110" value="" style="endArrow=classic;startArrow=classic;rounded=0;exitX=0.5;exitY=1;exitDx=0;exitDy=0;entryX=0.5;entryY=0;entryDx=0;entryDy=0;labelBackgroundColor=none;fontColor=none;noLabel=1;fillColor=#f0a30a;strokeColor=#CC6600;strokeWidth=1;" edge="1" parent="1" source="RxqqW9vf8jTpbXpibjCa-109" target="RxqqW9vf8jTpbXpibjCa-108">
          <mxGeometry width="50" height="50" relative="1" as="geometry">
            <mxPoint x="1045" y="390" as="sourcePoint" />
            <mxPoint x="1095" y="340" as="targetPoint" />
          </mxGeometry>
        </mxCell>
        <mxCell id="RxqqW9vf8jTpbXpibjCa-111" value="veth&amp;lt;id&amp;gt;、..." style="rounded=1;whiteSpace=wrap;html=1;fillColor=#D5E8D4;strokeColor=none;" vertex="1" parent="1">
          <mxGeometry x="1102" y="220" width="76" height="20" as="geometry" />
        </mxCell>
        <mxCell id="RxqqW9vf8jTpbXpibjCa-112" value="veth&amp;lt;id&amp;gt;" style="rounded=1;whiteSpace=wrap;html=1;fillColor=#D5E8D4;strokeColor=none;" vertex="1" parent="1">
          <mxGeometry x="990" y="220" width="50" height="20" as="geometry" />
        </mxCell>
        <mxCell id="RxqqW9vf8jTpbXpibjCa-113" value="" style="endArrow=none;html=1;rounded=0;entryX=0.5;entryY=1;entryDx=0;entryDy=0;exitX=0.5;exitY=0;exitDx=0;exitDy=0;strokeColor=#CC6600;strokeWidth=2;" edge="1" parent="1" source="RxqqW9vf8jTpbXpibjCa-112" target="RxqqW9vf8jTpbXpibjCa-118">
          <mxGeometry width="50" height="50" relative="1" as="geometry">
            <mxPoint x="1045" y="390" as="sourcePoint" />
            <mxPoint x="1285" y="300" as="targetPoint" />
          </mxGeometry>
        </mxCell>
        <mxCell id="RxqqW9vf8jTpbXpibjCa-114" value="" style="endArrow=none;html=1;rounded=0;entryX=0.5;entryY=1;entryDx=0;entryDy=0;exitX=0.5;exitY=0;exitDx=0;exitDy=0;strokeColor=default;strokeWidth=2;dashed=1;dashPattern=1 4;" edge="1" parent="1" source="RxqqW9vf8jTpbXpibjCa-111" target="RxqqW9vf8jTpbXpibjCa-121">
          <mxGeometry width="50" height="50" relative="1" as="geometry">
            <mxPoint x="1085" y="250" as="sourcePoint" />
            <mxPoint x="1085" y="230" as="targetPoint" />
          </mxGeometry>
        </mxCell>
        <mxCell id="RxqqW9vf8jTpbXpibjCa-115" value="&lt;div&gt;...&lt;/div&gt;" style="edgeLabel;html=1;align=center;verticalAlign=middle;resizable=0;points=[];fontColor=#330000;labelBackgroundColor=#99CCFF;" vertex="1" connectable="0" parent="RxqqW9vf8jTpbXpibjCa-114">
          <mxGeometry x="-0.1252" y="1" relative="1" as="geometry">
            <mxPoint x="10" as="offset" />
          </mxGeometry>
        </mxCell>
        <mxCell id="RxqqW9vf8jTpbXpibjCa-116" value="" style="endArrow=classic;startArrow=classic;rounded=0;exitX=0.5;exitY=1;exitDx=0;exitDy=0;entryX=0.5;entryY=0;entryDx=0;entryDy=0;labelBackgroundColor=none;fontColor=none;noLabel=1;fillColor=#f0a30a;strokeColor=#CC6600;strokeWidth=1;" edge="1" parent="1" source="RxqqW9vf8jTpbXpibjCa-130" target="RxqqW9vf8jTpbXpibjCa-109">
          <mxGeometry width="50" height="50" relative="1" as="geometry">
            <mxPoint x="1085" y="420" as="sourcePoint" />
            <mxPoint x="1085" y="450" as="targetPoint" />
          </mxGeometry>
        </mxCell>
        <mxCell id="RxqqW9vf8jTpbXpibjCa-117" value="" style="group;fontStyle=1" vertex="1" connectable="0" parent="1">
          <mxGeometry x="965" y="130" width="100" height="60" as="geometry" />
        </mxCell>
        <mxCell id="RxqqW9vf8jTpbXpibjCa-118" value="&lt;div&gt;容器 Nginx&lt;/div&gt;&lt;div&gt;10.233.0.88&lt;/div&gt;&lt;div&gt;&lt;br&gt;&lt;/div&gt;" style="rounded=1;whiteSpace=wrap;html=1;fillColor=#F0A30A;fontColor=#000000;strokeColor=none;fillStyle=auto;glass=0;shadow=1;" vertex="1" parent="RxqqW9vf8jTpbXpibjCa-117">
          <mxGeometry width="100" height="60" as="geometry" />
        </mxCell>
        <mxCell id="RxqqW9vf8jTpbXpibjCa-119" value="veth&amp;lt;id&amp;gt;" style="rounded=1;whiteSpace=wrap;html=1;fillColor=#D5E8D4;strokeColor=none;" vertex="1" parent="RxqqW9vf8jTpbXpibjCa-117">
          <mxGeometry x="25" y="40" width="50" height="20" as="geometry" />
        </mxCell>
        <mxCell id="RxqqW9vf8jTpbXpibjCa-120" value="" style="group" vertex="1" connectable="0" parent="1">
          <mxGeometry x="1090" y="130" width="100" height="60" as="geometry" />
        </mxCell>
        <mxCell id="RxqqW9vf8jTpbXpibjCa-121" value="&lt;div&gt;其他容器 ...&lt;/div&gt;&lt;div&gt;10.233.0.&amp;lt;...&amp;gt;&lt;br&gt;&lt;/div&gt;&lt;div&gt;&lt;br&gt;&lt;/div&gt;" style="rounded=1;whiteSpace=wrap;html=1;fillColor=#91C8FF;fontColor=#000000;strokeColor=none;fillStyle=auto;glass=0;shadow=1;gradientColor=none;movable=1;resizable=1;rotatable=1;deletable=1;editable=1;locked=0;connectable=1;" vertex="1" parent="RxqqW9vf8jTpbXpibjCa-120">
          <mxGeometry width="100" height="60" as="geometry" />
        </mxCell>
        <mxCell id="RxqqW9vf8jTpbXpibjCa-122" value="veth&amp;lt;id&amp;gt;、..." style="rounded=1;whiteSpace=wrap;html=1;fillColor=#D5E8D4;strokeColor=none;movable=0;resizable=0;rotatable=0;deletable=0;editable=0;locked=1;connectable=0;" vertex="1" parent="RxqqW9vf8jTpbXpibjCa-120">
          <mxGeometry x="14" y="40" width="76" height="20" as="geometry" />
        </mxCell>
        <mxCell id="RxqqW9vf8jTpbXpibjCa-123" value="" style="group" vertex="1" connectable="0" parent="1">
          <mxGeometry x="1030" y="266" width="90" height="44" as="geometry" />
        </mxCell>
        <mxCell id="RxqqW9vf8jTpbXpibjCa-124" value="&lt;div&gt;br-&amp;lt;id&amp;gt;&lt;br&gt;&lt;/div&gt;&lt;div&gt;(harbor_harbor)&lt;/div&gt;" style="rounded=1;whiteSpace=wrap;html=1;fillColor=#D5E8D4;strokeColor=none;" vertex="1" parent="RxqqW9vf8jTpbXpibjCa-123">
          <mxGeometry y="14" width="90" height="30" as="geometry" />
        </mxCell>
        <mxCell id="RxqqW9vf8jTpbXpibjCa-125" value="&lt;div style=&quot;font-size: 11px;&quot;&gt;10.233.0.1/24&lt;/div&gt;" style="text;html=1;strokeColor=none;fillColor=none;align=center;verticalAlign=middle;whiteSpace=wrap;rounded=0;fontStyle=1;fontSize=11;" vertex="1" parent="RxqqW9vf8jTpbXpibjCa-123">
          <mxGeometry x="10" width="70" height="14" as="geometry" />
        </mxCell>
        <mxCell id="RxqqW9vf8jTpbXpibjCa-126" value="" style="endArrow=none;html=1;entryX=0.5;entryY=1;entryDx=0;entryDy=0;exitX=0;exitY=0.25;exitDx=0;exitDy=0;strokeColor=#CC6600;strokeWidth=2;rounded=0;edgeStyle=orthogonalEdgeStyle;" edge="1" parent="1" source="RxqqW9vf8jTpbXpibjCa-124" target="RxqqW9vf8jTpbXpibjCa-112">
          <mxGeometry width="50" height="50" relative="1" as="geometry">
            <mxPoint x="1025" y="230" as="sourcePoint" />
            <mxPoint x="1025" y="200" as="targetPoint" />
          </mxGeometry>
        </mxCell>
        <mxCell id="RxqqW9vf8jTpbXpibjCa-127" value="" style="endArrow=classic;html=1;rounded=0;exitX=0;exitY=0.5;exitDx=0;exitDy=0;entryX=0;entryY=0.5;entryDx=0;entryDy=0;labelPosition=center;verticalLabelPosition=top;align=center;verticalAlign=bottom;strokeColor=#CC6600;edgeStyle=orthogonalEdgeStyle;curved=1;strokeWidth=2;" edge="1" parent="1" source="RxqqW9vf8jTpbXpibjCa-130" target="RxqqW9vf8jTpbXpibjCa-124">
          <mxGeometry width="50" height="50" relative="1" as="geometry">
            <mxPoint x="1045" y="547" as="sourcePoint" />
            <mxPoint x="1095" y="497" as="targetPoint" />
            <Array as="points">
              <mxPoint x="995" y="350" />
              <mxPoint x="995" y="295" />
            </Array>
          </mxGeometry>
        </mxCell>
        <mxCell id="RxqqW9vf8jTpbXpibjCa-128" value="" style="endArrow=classic;html=1;rounded=0;exitX=1;exitY=0.5;exitDx=0;exitDy=0;labelPosition=center;verticalLabelPosition=top;align=center;verticalAlign=bottom;strokeColor=#CC6600;edgeStyle=orthogonalEdgeStyle;curved=1;strokeWidth=2;entryX=1;entryY=0.5;entryDx=0;entryDy=0;" edge="1" parent="1" source="RxqqW9vf8jTpbXpibjCa-130" target="RxqqW9vf8jTpbXpibjCa-124">
          <mxGeometry width="50" height="50" relative="1" as="geometry">
            <mxPoint x="1040" y="500" as="sourcePoint" />
            <mxPoint x="1125" y="300" as="targetPoint" />
            <Array as="points">
              <mxPoint x="1155" y="350" />
              <mxPoint x="1155" y="295" />
            </Array>
          </mxGeometry>
        </mxCell>
        <mxCell id="RxqqW9vf8jTpbXpibjCa-129" value="" style="group" vertex="1" connectable="0" parent="1">
          <mxGeometry x="1030" y="330" width="90" height="30" as="geometry" />
        </mxCell>
        <mxCell id="RxqqW9vf8jTpbXpibjCa-130" value="&lt;div&gt;vxlan233&lt;/div&gt;" style="rounded=1;whiteSpace=wrap;html=1;fillColor=#D5E8D4;strokeColor=none;" vertex="1" parent="RxqqW9vf8jTpbXpibjCa-129">
          <mxGeometry y="10" width="90" height="20" as="geometry" />
        </mxCell>
        <mxCell id="RxqqW9vf8jTpbXpibjCa-131" value="&lt;div style=&quot;font-size: 11px;&quot;&gt;10.233.0.0/24&lt;/div&gt;" style="text;html=1;strokeColor=none;fillColor=none;align=center;verticalAlign=middle;whiteSpace=wrap;rounded=0;fontStyle=1;fontSize=11;" vertex="1" parent="RxqqW9vf8jTpbXpibjCa-129">
          <mxGeometry x="15" width="60" height="10" as="geometry" />
        </mxCell>
        <mxCell id="RxqqW9vf8jTpbXpibjCa-132" style="rounded=0;orthogonalLoop=1;jettySize=auto;html=1;exitX=1;exitY=0.25;exitDx=0;exitDy=0;entryX=0.5;entryY=1;entryDx=0;entryDy=0;dashed=1;dashPattern=1 4;strokeColor=default;endArrow=none;endFill=0;strokeWidth=2;edgeStyle=orthogonalEdgeStyle;" edge="1" parent="1" source="RxqqW9vf8jTpbXpibjCa-124" target="RxqqW9vf8jTpbXpibjCa-111">
          <mxGeometry relative="1" as="geometry" />
        </mxCell>
        <mxCell id="RxqqW9vf8jTpbXpibjCa-133" value="" style="group" vertex="1" connectable="0" parent="1">
          <mxGeometry x="1010" y="80" width="153" height="30" as="geometry" />
        </mxCell>
        <mxCell id="RxqqW9vf8jTpbXpibjCa-134" value="&lt;div style=&quot;font-size: 14px;&quot;&gt;服务器2&lt;/div&gt;&lt;div style=&quot;font-size: 14px;&quot;&gt;&lt;br&gt;&lt;/div&gt;" style="text;html=1;align=center;verticalAlign=middle;whiteSpace=wrap;rounded=0;fontStyle=1;fontColor=#004C99;fontSize=14;" vertex="1" parent="RxqqW9vf8jTpbXpibjCa-133">
          <mxGeometry width="140" height="20" as="geometry" />
        </mxCell>
        <mxCell id="RxqqW9vf8jTpbXpibjCa-135" value="子网：10.233.0.0/24" style="text;whiteSpace=wrap;html=1;fontColor=#004C99;fontSize=11;" vertex="1" parent="RxqqW9vf8jTpbXpibjCa-133">
          <mxGeometry x="13" y="10" width="140" height="20" as="geometry" />
        </mxCell>
      </root>
    </mxGraphModel>
  </diagram>
</mxfile>
